HIERARCHY
ROOT Hips
{
  OFFSET 0 0 0
  CHANNELS 6 Xposition Yposition Zposition Zrotation Yrotation Xrotation
  JOINT LeftThigh
  {
    OFFSET 8.759831 0 -6.164326
    CHANNELS 3 Zrotation Yrotation Xrotation
    JOINT LeftLeg
    {
      OFFSET 0 0 -44.123596
      CHANNELS 3 Zrotation Yrotation Xrotation
      JOINT LeftFoot
      {
        OFFSET 0 0 -40.997191
        CHANNELS 3 Zrotation Yrotation Xrotation
        End Site
        {
          OFFSET 0 -13.883989 -5.217556
        }
      }
    }
  }
  JOINT RightThigh
  {
    OFFSET -8.759831 0 -6.164326
    CHANNELS 3 Zrotation Yrotation Xrotation
    JOINT RightLeg
    {
      OFFSET 0 0 -44.123596
      CHANNELS 3 Zrotation Yrotation Xrotation
      JOINT RightFoot
      {
        OFFSET 0 0 -40.997191
        CHANNELS 3 Zrotation Yrotation Xrotation
        End Site
        {
          OFFSET 0 -13.883989 -5.217556
        }
      }
    }
  }
  JOINT SpineLow
  {
    OFFSET 0 0 4.91573
    CHANNELS 3 Zrotation Yrotation Xrotation
    JOINT SpineMid
    {
      OFFSET 0 0 13.436657
      CHANNELS 3 Zrotation Yrotation Xrotation
      JOINT Chest
      {
        OFFSET 0 0 13.436657
        CHANNELS 3 Zrotation Yrotation Xrotation
        JOINT LeftShoulder
        {
          OFFSET 7.865169 1.474719 9.831461
          CHANNELS 3 Zrotation Yrotation Xrotation
          JOINT LeftArm
          {
            OFFSET 9.536517 0 4.424157
            CHANNELS 3 Zrotation Yrotation Xrotation
            JOINT LeftForearm
            {
              OFFSET 0 0 26.845787
              CHANNELS 3 Zrotation Yrotation Xrotation
              JOINT LeftHand
              {
                OFFSET 0 0 26.247051
                CHANNELS 3 Zrotation Yrotation Xrotation
              }
            }
          }
        }
        JOINT RightShoulder
        {
          OFFSET -7.865169 1.474719 9.831461
          CHANNELS 3 Zrotation Yrotation Xrotation
          JOINT RightArm
          {
            OFFSET -9.536517 0 4.424157
            CHANNELS 3 Zrotation Yrotation Xrotation
            JOINT RightForearm
            {
              OFFSET 0 0 -26.845787
              CHANNELS 3 Zrotation Yrotation Xrotation
              JOINT RightHand
              {
                OFFSET 0 0 -26.247051
                CHANNELS 3 Zrotation Yrotation Xrotation
              }
            }
          }
        }
        JOINT Neck
        {
          OFFSET 0 0 15.730337
          CHANNELS 3 Zrotation Yrotation Xrotation
          JOINT Head
          {
            OFFSET 0 0 11.797753
            CHANNELS 3 Zrotation Yrotation Xrotation
            End Site
            {
              OFFSET 0 0 7.747191
            }
          }
        }
      }
    }
  }
}
MOTION
Frames: 11
Frame Time: 0.01
-12.259538  98.371346  42.079418  176.460798  6.499636  80.455778  -10.835459  -1.49558  -2.336278  -1.041973  7.462194  17.300471  7.906695  -1.215287  -4.211491  -6.12644  0.819292  0.724873  -2.695609  2.450351  10.952765  3.687088  -0.504723  -3.053701  -1.603789  0.055554  -0.626356  -4.384903  0.110243  -1.7149  -4.384903  0.110243  -1.7149  -15.107054  13.641393  17.520303  106.734806  48.095928  169.915865  -4.975694  -3.343568  32.096712  74.390433  -7.345756  10.028734  10.613416  -23.216252  19.115751  68.27967  54.673715  18.138474  5.031844  -4.132333  -40.974624  81.879893  3.250257  -2.213545  -4.131095  -1.812592  8.170313  -3.074475  -1.415047  6.115303  
-12.268187  98.370483  42.064789  176.46982  6.483981  80.460878  -10.834555  -1.491063  -2.327783  -1.080371  7.462476  17.281413  7.925165  -1.217035  -4.204048  -6.11823  0.81553  0.72824  -2.698262  2.454704  10.959481  3.663153  -0.510025  -3.061579  -1.608989  0.055214  -0.623418  -4.399101  0.109373  -1.706856  -4.399101  0.109373  -1.706856  -15.097225  13.648173  17.507903  106.743542  48.126007  169.916402  -4.983749  -3.336222  32.071193  74.353303  -7.339461  10.074511  10.630937  -23.224  19.090556  68.289377  54.663257  18.159069  5.034651  -4.142965  -40.991264  81.889848  3.257598  -2.188885  -4.156935  -1.782918  8.112432  -3.094423  -1.392735  6.07204  
-12.285897  98.370934  42.031063  176.47431  6.483936  80.456982  -10.806025  -1.485678  -2.342801  -1.039168  7.43731  17.311403  7.877364  -1.21971  -4.201782  -6.095557  0.83249  0.745082  -2.712112  2.444208  10.976716  3.650557  -0.52022  -3.084674  -1.601285  0.054224  -0.621347  -4.378017  0.107005  -1.701125  -4.378017  0.107005  -1.701125  -15.149573  13.650739  17.49406  106.809229  48.110051  169.967745  -5.005141  -3.31884  32.065543  74.447262  -7.329015  10.027574  10.620777  -23.23036  19.068677  68.300311  54.648698  18.19833  5.050609  -4.132586  -41.017772  81.897644  3.349885  -2.231748  -4.140667  -1.747487  8.046257  -3.08288  -1.365485  6.022713  
-12.289505  98.371353  42.015659  176.475339  6.475684  80.451398  -10.815158  -1.463712  -2.327516  -1.056246  7.425342  17.298921  7.895565  -1.223598  -4.198871  -6.087271  0.837375  0.760184  -2.724349  2.445008  10.979727  3.64466  -0.524344  -3.093603  -1.60135  0.056663  -0.620891  -4.378258  0.113696  -1.70004  -4.378258  0.113696  -1.70004  -15.154861  13.657905  17.509256  106.807796  48.132727  169.968618  -5.024062  -3.311462  32.024878  74.432621  -7.336487  10.058671  10.602797  -23.249325  19.076822  68.280445  54.652762  18.203891  5.059684  -4.15698  -41.054091  81.906617  3.354082  -2.207227  -4.182077  -1.719717  8.002911  -3.114429  -1.3449  5.990298  
-12.30137  98.373985  41.983994  176.478239  6.483569  80.454671  -10.839691  -1.449935  -2.33458  -0.955647  7.384394  17.307708  7.837436  -1.229416  -4.189909  -6.084115  0.864841  0.778899  -2.722832  2.403497  10.975191  3.65542  -0.514093  -3.107911  -1.594318  0.055409  -0.620278  -4.359006  0.110493  -1.698273  -4.359005  0.110493  -1.698273  -15.211695  13.672219  17.508234  106.877088  48.144202  169.985641  -5.042287  -3.304937  32.025096  74.51226  -7.355513  10.036034  10.582561  -23.250155  19.070155  68.312585  54.65084  18.229394  5.083303  -4.156381  -41.076461  81.911701  3.443193  -2.254301  -4.154925  -1.681872  7.936601  -3.094742  -1.315696  5.940914  
-12.307603  98.376389  41.964882  176.474924  6.480275  80.45765  -10.851273  -1.422547  -2.328912  -0.97729  7.375055  17.295097  7.869142  -1.235383  -4.188505  -6.078595  0.877294  0.791452  -2.739606  2.400549  10.965468  3.662193  -0.5161  -3.111576  -1.597599  0.05562  -0.619654  -4.367976  0.111026  -1.696588  -4.367976  0.111026  -1.696588  -15.189709  13.684814  17.509942  106.826557  48.163247  169.964364  -5.057513  -3.311651  31.98929  74.469819  -7.363305  10.073882  10.59675  -23.251465  19.069371  68.29366  54.660024  18.229052  5.106877  -4.180048  -41.104534  81.922441  3.445746  -2.242495  -4.177627  -1.640846  7.882343  -3.112452  -1.284841  5.900465  
-12.323438  98.37941  41.932732  176.475504  6.502416  80.470216  -10.854594  -1.423264  -2.340826  -0.88813  7.347206  17.296873  7.808151  -1.237871  -4.179512  -6.07357  0.896072  0.798255  -2.735279  2.382123  10.959494  3.685427  -0.517941  -3.126661  -1.59539  0.051732  -0.618197  -4.361836  0.100558  -1.692348  -4.361836  0.100558  -1.692348  -15.200548  13.698216  17.484071  106.857384  48.168614  169.949884  -5.078219  -3.296769  32.012019  74.540639  -7.377174  10.054493  10.626579  -23.243606  19.046592  68.382893  54.647154  18.261854  5.12503  -4.167914  -41.070827  81.938638  3.534652  -2.311572  -4.124634  -1.591945  7.803804  -3.073538  -1.246936  5.842049  
-12.326913  98.382004  41.909061  176.474395  6.503818  80.474322  -10.860299  -1.412242  -2.339411  -0.919009  7.355291  17.288977  7.848453  -1.243511  -4.180621  -6.101314  0.901967  0.815774  -2.726093  2.386934  10.942378  3.70494  -0.524197  -3.130012  -1.6014  0.050097  -0.616607  -4.378221  0.096042  -1.6879  -4.378221  0.096042  -1.687901  -15.160782  13.71319  17.470382  106.795243  48.18507  169.912743  -5.099526  -3.293056  31.988237  74.510007  -7.384293  10.110156  10.668792  -23.238825  19.027899  68.394712  54.641991  18.27961  5.158987  -4.178955  -41.069178  81.959595  3.529203  -2.305198  -4.131414  -1.548837  7.744479  -3.079327  -1.214279  5.79785  
-12.340316  98.383415  41.887726  176.480943  6.538921  80.487627  -10.864771  -1.425829  -2.360674  -0.840553  7.340586  17.31099  7.820915  -1.244175  -4.177695  -6.082222  0.902913  0.818909  -2.708144  2.378455  10.927979  3.695793  -0.530855  -3.12539  -1.598188  0.046725  -0.612548  -4.36935  0.087181  -1.676587  -4.369351  0.087181  -1.676587  -15.146252  13.695776  17.421857  106.790271  48.16137  169.907945  -5.119528  -3.286077  31.997668  74.580775  -7.40209  10.122676  10.716362  -23.242627  18.976496  68.472662  54.630203  18.325335  5.209425  -4.155885  -41.033369  81.974315  3.607885  -2.377351  -4.071364  -1.509802  7.654337  -3.034997  -1.183627  5.730665  
-12.343219  98.385048  41.859589  176.484877  6.54386  80.484666  -10.875381  -1.421128  -2.354433  -0.860892  7.349431  17.306789  7.858024  -1.249852  -4.175755  -6.122513  0.901492  0.846518  -2.705343  2.393275  10.9118  3.739071  -0.54008  -3.131878  -1.599116  0.046566  -0.610524  -4.371882  0.086856  -1.671046  -4.371882  0.086856  -1.671046  -15.14033  13.697331  17.414218  106.769184  48.179742  169.889991  -5.097468  -3.278145  31.985615  74.559405  -7.419586  10.193597  10.727857  -23.25362  18.960687  68.500309  54.626629  18.352552  5.252212  -4.16132  -41.018063  81.977416  3.595487  -2.364847  -4.092801  -1.480342  7.595982  -3.051586  -1.161401  5.687059  
-12.357377  98.38591  41.85955  176.492801  6.574905  80.489005  -10.867931  -1.423798  -2.369991  -0.808681  7.331328  17.33557  7.822728  -1.255016  -4.180792  -6.095293  0.899477  0.850628  -2.661917  2.378326  10.88971  3.69955  -0.550542  -3.113512  -1.588516  0.042979  -0.609467  -4.342817  0.077396  -1.667914  -4.342817  0.077396  -1.667914  -15.176619  13.688287  17.393806  106.827493  48.170903  169.9215  -5.065042  -3.281421  31.993332  74.65577  -7.427628  10.182309  10.722232  -23.261411  18.931038  68.541572  54.610531  18.418938  5.301011  -4.138081  -41.001278  81.992195  3.672969  -2.410216  -4.061038  -1.446963  7.525028  -3.028341  -1.13549  5.634151  
